<svg width="91" height="91" viewBox="0 0 91 91" fill="none" xmlns="http://www.w3.org/2000/svg">
<circle cx="45.5" cy="45.5" r="45.5" fill="white"/>
<path d="M29.8239 28H33.1839C34.2772 28 35.0972 28.2933 35.6439 28.88C36.1906 29.4667 36.4639 30.3267 36.4639 31.46V38.54C36.4639 39.6733 36.1906 40.5333 35.6439 41.12C35.0972 41.7067 34.2772 42 33.1839 42H29.8239V28ZM33.1439 40C33.5039 40 33.7772 39.8933 33.9639 39.68C34.1639 39.4667 34.2639 39.12 34.2639 38.64V31.36C34.2639 30.88 34.1639 30.5333 33.9639 30.32C33.7772 30.1067 33.5039 30 33.1439 30H32.0239V40H33.1439ZM37.9489 28H41.2089C42.3422 28 43.1689 28.2667 43.6889 28.8C44.2089 29.32 44.4689 30.1267 44.4689 31.22V32.08C44.4689 33.5333 43.9889 34.4533 43.0289 34.84V34.88C43.5622 35.04 43.9356 35.3667 44.1489 35.86C44.3756 36.3533 44.4889 37.0133 44.4889 37.84V40.3C44.4889 40.7 44.5022 41.0267 44.5289 41.28C44.5556 41.52 44.6222 41.76 44.7289 42H42.4889C42.4089 41.7733 42.3556 41.56 42.3289 41.36C42.3022 41.16 42.2889 40.8 42.2889 40.28V37.72C42.2889 37.08 42.1822 36.6333 41.9689 36.38C41.7689 36.1267 41.4156 36 40.9089 36H40.1489V42H37.9489V28ZM40.9489 34C41.3889 34 41.7156 33.8867 41.9289 33.66C42.1556 33.4333 42.2689 33.0533 42.2689 32.52V31.44C42.2689 30.9333 42.1756 30.5667 41.9889 30.34C41.8156 30.1133 41.5356 30 41.1489 30H40.1489V34H40.9489ZM47.7153 28H50.6953L52.9753 42H50.7753L50.3753 39.22V39.26H47.8753L47.4753 42H45.4353L47.7153 28ZM50.1153 37.36L49.1353 30.44H49.0953L48.1353 37.36H50.1153ZM57.1236 42.2C56.0569 42.2 55.2436 41.9 54.6836 41.3C54.1236 40.6867 53.8436 39.8133 53.8436 38.68V31.32C53.8436 30.1867 54.1236 29.32 54.6836 28.72C55.2436 28.1067 56.0569 27.8 57.1236 27.8C58.1903 27.8 59.0036 28.1067 59.5636 28.72C60.1236 29.32 60.4036 30.1867 60.4036 31.32V32.52H58.3236V31.18C58.3236 30.26 57.9436 29.8 57.1836 29.8C56.4236 29.8 56.0436 30.26 56.0436 31.18V38.84C56.0436 39.7467 56.4236 40.2 57.1836 40.2C57.9436 40.2 58.3236 39.7467 58.3236 38.84V36.1H57.2236V34.1H60.4036V38.68C60.4036 39.8133 60.1236 40.6867 59.5636 41.3C59.0036 41.9 58.1903 42.2 57.1236 42.2Z" fill="black"/>
<path d="M37.3063 52H40.4463L41.8463 62.02H41.8863L43.2863 52H46.4263V66H44.3463V55.4H44.3063L42.7063 66H40.8663L39.2663 55.4H39.2263V66H37.3063V52ZM48.068 52H54.068V54H50.268V57.7H53.288V59.7H50.268V64H54.068V66H48.068V52Z" fill="black"/>
</svg>
