
        <svg xmlns="http://www.w3.org/2000/svg" xmlns:xlink="http://www.w3.org/1999/xlink" version="1.1" width="3249.8471349609736" 
        height="2901.169213623214" viewBox="0 0 3249.8471349609736 2901.169213623214">
			
			<g transform="scale(12.492356748048667) translate(10, 10)">
				<defs id="SvgjsDefs2886"><linearGradient id="SvgjsLinearGradient2897"><stop id="SvgjsStop2898" stop-color="#945f50" offset="0"></stop><stop id="SvgjsStop2899" stop-color="#fcc5b3" offset="0.5"></stop><stop id="SvgjsStop2900" stop-color="#945f50" offset="1"></stop></linearGradient><linearGradient id="SvgjsLinearGradient2901"><stop id="SvgjsStop2902" stop-color="#945f50" offset="0"></stop><stop id="SvgjsStop2903" stop-color="#fcc5b3" offset="0.5"></stop><stop id="SvgjsStop2904" stop-color="#945f50" offset="1"></stop></linearGradient><linearGradient id="SvgjsLinearGradient2905"><stop id="SvgjsStop2906" stop-color="#945f50" offset="0"></stop><stop id="SvgjsStop2907" stop-color="#fcc5b3" offset="0.5"></stop><stop id="SvgjsStop2908" stop-color="#945f50" offset="1"></stop></linearGradient><linearGradient id="SvgjsLinearGradient2909"><stop id="SvgjsStop2910" stop-color="#945f50" offset="0"></stop><stop id="SvgjsStop2911" stop-color="#fcc5b3" offset="0.5"></stop><stop id="SvgjsStop2912" stop-color="#945f50" offset="1"></stop></linearGradient></defs><g id="SvgjsG2887" featureKey="symbolContainer" transform="matrix(1.2857438380268797,0,0,1.2857438380268797,51.951763897986496,4.036862572689256)" fill="url(#SvgjsLinearGradient2897)"><path xmlns="http://www.w3.org/2000/svg" d="M104.6 41.3a52.2 52.2 0 0 0-3.5-11.2A51.1 51.1 0 0 0 44.3 1a49.6 49.6 0 0 0-5.7 1.5 49.1 49.1 0 0 0-7.9 2.7A51.6 51.6 0 0 0 6.3 77a53.7 53.7 0 0 0 4.1 6.4 57 57 0 0 0 5 5.7 51.7 51.7 0 0 0 55.3 11.5l3.3-1.4 3-1.5a50.9 50.9 0 0 0 5.8-3.8l2.7-2.1 1.2-1.1 1.1-.9 2-1.8.7-.6.6-.7 1.8-2a48.5 48.5 0 0 0 5.9-8.3 50.4 50.4 0 0 0 5.6-14.7 51.6 51.6 0 0 0 .2-20.4zM87.1 88.6l-1.2 1.1-1.2 1.1-2.6 2.1a49.5 49.5 0 0 1-5.7 3.6l-3 1.5-3.2 1.3-4.9 1.6h-.5a50.9 50.9 0 0 1-20.3.1 51.8 51.8 0 0 1-11.1-3.6A50.5 50.5 0 0 1 22.9 91a52 52 0 0 1-9.1-9.4 50.3 50.3 0 0 1-3.7-5.7c-.6-1-1.1-2-1.6-3.1s-1-2.1-1.3-3.2a50.6 50.6 0 0 1 8.6-50.8l.8-.8.5-.6.6-.6 1.2-1.1 2.4-2.1A50.5 50.5 0 0 1 62.4 3.2a48.5 48.5 0 0 1 14.7 5.2 47 47 0 0 1 8.3 5.8l2 1.8.7.6.6.7 1.8 2a49.7 49.7 0 0 1 11.3 22.9 50.8 50.8 0 0 1-.1 20.2 51.6 51.6 0 0 1-3.6 11 50.2 50.2 0 0 1-6.6 10.5l-2.1 2.4zm-44.9 13a50.1 50.1 0 0 1-13.7-5 51.8 51.8 0 0 1-6.2-4 55.2 55.2 0 0 1-5.5-4.8 49.9 49.9 0 0 1-11-53.2c.4-1.1.9-2.1 1.3-3.1l.6-1.3a50.2 50.2 0 0 0-3.4 11 51.3 51.3 0 0 0 2.4 28.5c.4 1.1.9 2.2 1.4 3.2s1 2.1 1.6 3.1a50.6 50.6 0 0 0 3.7 5.8 51.5 51.5 0 0 0 9.2 9.5 50.9 50.9 0 0 0 10.7 6.5 51 51 0 0 0 28.7 3.9 50.3 50.3 0 0 1-19.8-.1zm61.9-39.9a50.2 50.2 0 0 1-5.5 14.7 48.4 48.4 0 0 1-5.8 8.3l-1.8 2-.6.7-.7.6-1.9 1.7h.2l2.3-2.4 2.1-2.5A51.3 51.3 0 0 0 98.9 74a51.4 51.4 0 0 0 3.2-31.6 49.6 49.6 0 0 0-2.5-8.2 49.4 49.4 0 0 0-3.1-6.5 48.7 48.7 0 0 0-5.9-8.3l-1.8-2-.6-.7-.7-.6-2-1.8A49.9 49.9 0 0 0 77.3 8a49.3 49.3 0 0 0-6.5-3.2 49.8 49.8 0 0 0-8.2-2.6A52.2 52.2 0 0 0 49.9 1a50.8 50.8 0 0 1 22.7 3.2l3.2 1.3 3.1 1.6a50.1 50.1 0 0 1 5.7 3.7l2.6 2.1 1.2 1.1 1.2 1.1 2.3 2.3 2.1 2.4a50.4 50.4 0 0 1 6.5 10.5 51.6 51.6 0 0 1 3.6 11 51.1 51.1 0 0 1 0 20.3z"></path></g><g id="SvgjsG2888" featureKey="monogramFeature-0" transform="matrix(2.2632886898803948,0,0,2.2632886898803948,68.56811664142435,-38.834355590735896)" fill="url(#SvgjsLinearGradient2901)"><path d="M3.6 59.88 c0 3 0.78 5.46 2.1 5.46 c1.74 0 3.66 -5.52 6.72 -11.1 c2.88 -5.28 4.14 -8.52 5.34 -8.52 c1.5 0 2.16 1.38 1.98 4.26 c-0.42 6.24 -3.12 13.92 -3.6 19.98 c-0.42 5.82 0.24 8.28 2.28 8.28 c1.98 0 8.28 -4.98 13.8 -16.02 s9.3 -26.58 9.3 -34.56 c0 -7.68 -0.66 -9.78 -1.92 -9.36 s-0.42 -1.2 0.66 -1.14 c1.02 0.12 2.46 2.1 2.46 10.44 c0 12.84 -4.26 25.74 -9.42 36 c-4.92 9.66 -10.5 15.66 -14.64 15.66 c-4.2 0 -4.56 -5.22 -4.08 -9.18 c0.78 -6.84 3.48 -15.42 3.84 -20.1 c0.12 -2.1 0.12 -2.94 -0.42 -2.94 c-0.9 0 -3.42 5.16 -4.86 8.16 c-1.62 3.24 -4.92 11.16 -7.14 11.16 c-2.1 0 -3.6 -2.16 -3.6 -6.48 c0 -4.92 1.62 -12.54 5.34 -20.94 c3 -6.66 6.36 -11.64 8.88 -13.86 c1.32 -1.08 0.36 1.32 -2.88 5.88 c-2.34 3.36 -3.36 5.64 -5.28 9.9 c-2.88 6.54 -4.86 14.34 -4.86 19.02 z"></path></g><g id="SvgjsG2889" featureKey="nameFeature-0" transform="matrix(0.5740031237730724,0,0,0.5740031237730724,-0.18368027702349474,154.8007645115323)" fill="#ffffff"><path d="M26.96 19.88 l4.36 0 l-6.92 20.12 l-4 0 l-4.6 -14.08 l-4.6 14.08 l-3.96 0 l-6.92 -20.12 l4.32 0 l4.72 14.88 l4.68 -14.88 l3.56 0 l4.64 14.84 z M42.028 40.52 c-6.28 0 -10.72 -4.2 -10.72 -10.56 c0 -6 4.12 -10.6 10.36 -10.6 c6.52 0 10.24 4.52 10.24 10.2 c0 0.6 -0.04 1.08 -0.12 1.68 l-16.36 0 c0.28 3.32 2.6 5.68 6.68 5.68 c3 0 4.88 -1.48 5.72 -3.24 l3.84 1.12 c-1.24 2.72 -4.4 5.72 -9.64 5.72 z M35.428 28.439999999999998 l12.36 -0.04 c-0.24 -3.08 -2.44 -5.44 -6.12 -5.44 c-3.6 0 -5.96 2.6 -6.24 5.48 z M65.776 19.36 c5.68 0 10.04 4.52 10.04 10.56 c0 6.08 -4.36 10.6 -10.04 10.6 c-3.2 0 -5.68 -1.4 -7.2 -3.56 l0 3.04 l-4.2 0 l0 -29.2 l4.2 0 l0 12.12 c1.52 -2.16 4 -3.56 7.2 -3.56 z M65.096 36.76 c3.84 0 6.56 -2.88 6.56 -6.84 s-2.72 -6.8 -6.56 -6.8 c-3.68 0 -6.64 2.88 -6.64 6.8 c0 3.96 2.96 6.84 6.64 6.84 z M95.31200000000001 40.52 c-5.68 0 -10 -4.52 -10 -10.6 c0 -6.04 4.32 -10.56 10 -10.56 c3.24 0 5.72 1.4 7.24 3.56 l0 -3.04 l4.16 0 l0 20.12 l-4.16 0 l0 -3.04 c-1.52 2.16 -4 3.56 -7.24 3.56 z M95.992 36.76 c3.68 0 6.64 -2.88 6.64 -6.84 c0 -3.92 -2.96 -6.8 -6.64 -6.8 c-3.84 0 -6.56 2.84 -6.56 6.8 s2.72 6.84 6.56 6.84 z M119.78000000000002 40.52 c-6.12 0 -10.56 -4.6 -10.56 -10.6 s4.44 -10.56 10.52 -10.56 c5.4 0 8.8 3.44 9.56 6.36 l-3.88 1.12 c-0.56 -1.84 -2.72 -3.72 -5.64 -3.72 c-3.92 0 -6.48 3.12 -6.48 6.8 c0 3.64 2.56 6.84 6.48 6.84 c2.92 0 5.08 -1.76 5.64 -3.6 l3.88 1.08 c-0.76 2.92 -4.16 6.28 -9.52 6.28 z M141.08800000000002 40.52 c-6.12 0 -10.56 -4.6 -10.56 -10.6 s4.44 -10.56 10.52 -10.56 c5.4 0 8.8 3.44 9.56 6.36 l-3.88 1.12 c-0.56 -1.84 -2.72 -3.72 -5.64 -3.72 c-3.92 0 -6.48 3.12 -6.48 6.8 c0 3.64 2.56 6.84 6.48 6.84 c2.92 0 5.08 -1.76 5.64 -3.6 l3.88 1.08 c-0.76 2.92 -4.16 6.28 -9.52 6.28 z M167.836 19.88 l4.16 0 l0 20.12 l-4.16 0 l0 -3.04 c-1.4 2.04 -3.76 3.56 -6.96 3.56 c-5.12 0 -8 -3.4 -8 -8.84 l0 -11.8 l4.2 0 l0 11.04 c0 3.52 1.68 5.68 4.96 5.68 c3.48 0 5.8 -2.68 5.8 -6.72 l0 -10 z M179.94400000000002 23.08 c1.2 -2.44 3.56 -3.88 6.88 -3.44 l0 3.92 c-4.28 -0.64 -6.88 1.52 -6.88 7.36 l0 9.08 l-4.2 0 l0 -20.12 l4.2 0 l0 3.2 z M197.45200000000003 40.52 c-5.68 0 -10 -4.52 -10 -10.6 c0 -6.04 4.32 -10.56 10 -10.56 c3.24 0 5.72 1.4 7.24 3.56 l0 -3.04 l4.16 0 l0 20.12 l-4.16 0 l0 -3.04 c-1.52 2.16 -4 3.56 -7.24 3.56 z M198.13200000000003 36.76 c3.68 0 6.64 -2.88 6.64 -6.84 c0 -3.92 -2.96 -6.8 -6.64 -6.8 c-3.84 0 -6.56 2.84 -6.56 6.8 s2.72 6.84 6.56 6.84 z M223.72 19.36 c5.16 0 8 3.4 8 8.84 l0 11.8 l-4.16 0 l0 -11.04 c0 -3.52 -1.68 -5.68 -4.96 -5.68 c-3.52 0 -5.8 2.68 -5.8 6.72 l0 10 l-4.2 0 l0 -20.12 l4.2 0 l0 3 c1.4 -2 3.72 -3.52 6.92 -3.52 z M244.58800000000002 40.52 c-6.12 0 -10.56 -4.6 -10.56 -10.6 s4.44 -10.56 10.52 -10.56 c5.4 0 8.8 3.44 9.56 6.36 l-3.88 1.12 c-0.56 -1.84 -2.72 -3.72 -5.64 -3.72 c-3.92 0 -6.48 3.12 -6.48 6.8 c0 3.64 2.56 6.84 6.48 6.84 c2.92 0 5.08 -1.76 5.64 -3.6 l3.88 1.08 c-0.76 2.92 -4.16 6.28 -9.52 6.28 z M271.616 19.88 l4.48 0 l-12.24 28.52 l-4.32 0 l3.76 -8.84 l-9.2 -19.68 l4.56 0 l6.72 14.96 z M294.392 40.52 c-5.68 0 -10 -4.52 -10 -10.6 c0 -6.04 4.32 -10.56 10 -10.56 c3.24 0 5.72 1.4 7.24 3.56 l0 -3.04 l4.16 0 l0 20.12 l-4.16 0 l0 -3.04 c-1.52 2.16 -4 3.56 -7.24 3.56 z M295.072 36.76 c3.68 0 6.64 -2.88 6.64 -6.84 c0 -3.92 -2.96 -6.8 -6.64 -6.8 c-3.84 0 -6.56 2.84 -6.56 6.8 s2.72 6.84 6.56 6.84 z M325.42 19.88 l4.2 0 l0 19.4 c0 5.6 -4.08 9.64 -10.2 9.64 c-4.84 0 -7.92 -2.24 -9.6 -5.24 l3.68 -1.36 c1.2 2 3.12 3.08 6 3.08 c3.84 0 5.88 -2.64 5.92 -6.08 l0 -2.96 c-1.56 2.12 -4 3.4 -7.08 3.4 c-5.84 0 -10.04 -4.44 -10.04 -10.2 c0 -5.96 4.2 -10.2 10.04 -10.2 c3.08 0 5.52 1.28 7.08 3.36 l0 -2.84 z M318.98 36 c3.72 0 6.56 -2.72 6.56 -6.44 s-2.84 -6.4 -6.56 -6.4 c-3.88 0 -6.56 2.68 -6.56 6.4 s2.68 6.44 6.56 6.44 z M342.84799999999996 40.52 c-6.28 0 -10.72 -4.2 -10.72 -10.56 c0 -6 4.12 -10.6 10.36 -10.6 c6.52 0 10.24 4.52 10.24 10.2 c0 0.6 -0.04 1.08 -0.12 1.68 l-16.36 0 c0.28 3.32 2.6 5.68 6.68 5.68 c3 0 4.88 -1.48 5.72 -3.24 l3.84 1.12 c-1.24 2.72 -4.4 5.72 -9.64 5.72 z M336.248 28.439999999999998 l12.36 -0.04 c-0.24 -3.08 -2.44 -5.44 -6.12 -5.44 c-3.6 0 -5.96 2.6 -6.24 5.48 z M366.316 19.36 c5.16 0 8 3.4 8 8.84 l0 11.8 l-4.16 0 l0 -11.04 c0 -3.52 -1.68 -5.68 -4.96 -5.68 c-3.52 0 -5.8 2.68 -5.8 6.72 l0 10 l-4.2 0 l0 -20.12 l4.2 0 l0 3 c1.4 -2 3.72 -3.52 6.92 -3.52 z M387.18399999999997 40.52 c-6.12 0 -10.56 -4.6 -10.56 -10.6 s4.44 -10.56 10.52 -10.56 c5.4 0 8.8 3.44 9.56 6.36 l-3.88 1.12 c-0.56 -1.84 -2.72 -3.72 -5.64 -3.72 c-3.92 0 -6.48 3.12 -6.48 6.8 c0 3.64 2.56 6.84 6.48 6.84 c2.92 0 5.08 -1.76 5.64 -3.6 l3.88 1.08 c-0.76 2.92 -4.16 6.28 -9.52 6.28 z M414.21199999999993 19.88 l4.48 0 l-12.24 28.52 l-4.32 0 l3.76 -8.84 l-9.2 -19.68 l4.56 0 l6.72 14.96 z"></path></g><g id="SvgjsG2890" featureKey="sloganFeature-0" transform="matrix(0.650425348612773,0,0,0.650425348612773,28.634367043254475,199.10000413969013)" fill="url(#SvgjsLinearGradient2905)"><path d="M2.0996 20 l0 -13.809 l4.5508 0 c4.248 0 6.4063 2.8516 6.4063 6.8945 c0 4.0723 -2.1582 6.9141 -6.4063 6.9141 l-4.5508 0 z M4.043 18.2422 l2.5293 0 c3.0176 0 4.4531 -2.002 4.4531 -5.1563 c0 -3.1348 -1.4355 -5.1465 -4.4531 -5.1465 l-2.5293 0 l0 10.303 z M25.92043515625 7.939 l-5.5273 0 l0 4.2969 l4.873 0 l0 1.7383 l-4.873 0 l0 4.2676 l5.5273 0 l0 1.7578 l-7.5098 0 l0 -13.809 l7.5098 0 l0 1.748 z M35.6006046875 20.18555 c-2.8809 0 -4.9902 -1.377 -5.459 -3.7207 l1.9824 -0.46875 c0.3125 1.6113 1.709 2.5391 3.5449 2.5391 c1.4746 0 2.8906 -0.60547 2.8613 -2.2656 c-0.019531 -1.6406 -1.7969 -2.0898 -3.6816 -2.6074 c-2.1387 -0.58594 -4.2773 -1.2598 -4.2773 -3.7988 c0 -2.5684 2.1191 -3.8574 4.6289 -3.8574 c2.4316 0 4.6191 1.0254 5.1367 3.3984 l-1.8848 0.47852 c-0.3418 -1.5332 -1.6211 -2.2168 -3.1641 -2.2168 c-1.3867 0 -2.7637 0.60547 -2.7637 2.1777 c0 1.4258 1.543 1.8457 3.291 2.3145 c2.1973 0.5957 4.7168 1.2793 4.7168 4.0527 c0 2.793 -2.3438 3.9746 -4.9316 3.9746 z M45.78856484375 20 l0 -13.809 l1.9434 0 l0 13.809 l-1.9434 0 z M59.882796875 20.18555 c-3.8672 0 -6.8359 -2.6465 -6.8359 -7.0508 c0 -4.4434 2.9883 -7.1289 6.9043 -7.1289 c2.5391 0 4.7168 1.1133 5.9082 3.2227 l-1.7188 0.91797 c-0.86914 -1.6211 -2.4219 -2.373 -4.1895 -2.373 c-2.793 0 -4.9512 1.8945 -4.9512 5.3223 c0 3.3789 2.1094 5.3418 5.0195 5.3418 c2.3438 0 4.1797 -1.3184 4.502 -3.9355 l-4.5117 0 l0 -1.6211 l6.3965 0 l0 7.1191 l-1.582 0 l0 -2.4805 c-0.9082 1.6895 -2.6172 2.666 -4.9414 2.666 z M81.31078515625 6.191000000000001 l1.9336 0 l0 13.809 l-2.0996 0 l-7.2168 -10.957 l0 10.957 l-1.9238 0 l0 -13.809 l2.0801 0 l7.2266 10.908 l0 -10.908 z M108.20052734375 20 l-2.2168 0 l-1.084 -1.4063 c-1.2793 0.98633 -2.8613 1.6016 -4.5801 1.6016 c-2.5195 0 -4.4629 -1.2891 -4.4629 -3.7695 c0 -2.0605 1.3281 -3.0859 3.8184 -4.6582 c-1.0449 -1.3867 -1.5039 -2.168 -1.5039 -3.0957 c0 -0.85938 0.37109 -1.5137 0.9668 -1.9727 c0.58594 -0.45898 1.416 -0.70313 2.3145 -0.70313 c1.8848 0 3.3008 1.0254 3.3008 2.6953 c0 1.2891 -0.84961 2.2559 -2.7051 3.4082 l3.0273 3.8867 c0.82031 -1.1523 1.2988 -2.5391 1.2988 -3.8281 l1.748 0 c0 1.9141 -0.74219 3.7695 -1.9629 5.2246 z M100.35892734375 7.734 c-0.24414 0.24414 -0.39063 0.5957 -0.39063 1.0254 c0 0.625 0.30273 1.0352 1.0742 2.0508 l0.12695 0.16602 c1.2207 -0.77148 1.8652 -1.4551 1.8652 -2.2852 c0 -0.88867 -0.73242 -1.377 -1.5527 -1.377 c-0.42969 0 -0.83008 0.14648 -1.123 0.41992 z M100.38822734375 18.6035 c1.3379 0 2.5391 -0.51758 3.5059 -1.3281 l-3.291 -4.3066 c-1.8359 1.1523 -2.9785 1.9141 -2.9785 3.3984 c0 1.5234 1.2012 2.2363 2.7637 2.2363 z M120.96922890625 20 l0 -13.809 l4.5508 0 c4.248 0 6.4063 2.8516 6.4063 6.8945 c0 4.0723 -2.1582 6.9141 -6.4063 6.9141 l-4.5508 0 z M122.91262890625 18.2422 l2.5293 0 c3.0176 0 4.4531 -2.002 4.4531 -5.1563 c0 -3.1348 -1.4355 -5.1465 -4.4531 -5.1465 l-2.5293 0 l0 10.303 z M144.7900640625 7.939 l-5.5273 0 l0 4.2969 l4.873 0 l0 1.7383 l-4.873 0 l0 4.2676 l5.5273 0 l0 1.7578 l-7.5098 0 l0 -13.809 l7.5098 0 l0 1.748 z M158.69843359375 6.191000000000001 l2.0508 0 l-5.0781 13.809 l-2.0313 0 l-5.0586 -13.809 l2.041 0 l4.043 11.426 z M172.959009375 7.939 l-5.5273 0 l0 4.2969 l4.873 0 l0 1.7383 l-4.873 0 l0 4.2676 l5.5273 0 l0 1.7578 l-7.5098 0 l0 -13.809 l7.5098 0 l0 1.748 z M180.25637890625 18.2422 l4.7168 0 l0 1.7578 l-6.6602 0 l0 -13.809 l1.9434 0 l0 12.051 z M195.6201421875 20.18555 c-3.916 0 -6.9043 -2.6953 -6.9043 -7.0996 c0 -4.3945 2.9883 -7.0801 6.9043 -7.0801 c3.8965 0 6.8945 2.6855 6.8945 7.0801 c0 4.4043 -2.998 7.0996 -6.8945 7.0996 z M195.6201421875 18.3594 c2.7637 0 4.9512 -1.9141 4.9512 -5.2734 c0 -3.3301 -2.1875 -5.2441 -4.9512 -5.2441 c-2.7734 0 -4.9707 1.9141 -4.9707 5.2441 c0 3.3594 2.1973 5.2734 4.9707 5.2734 z M213.14211484375 6.191000000000001 c2.5293 0 4.1602 1.9141 4.1602 4.2773 c0 2.3926 -1.6309 4.2383 -4.1602 4.2383 l-3.3789 0 l0 5.293 l-1.9434 0 l0 -13.809 l5.3223 0 z M212.84911484375 13.0273 c1.6211 0 2.5293 -1.0449 2.5293 -2.5879 c0 -1.4844 -0.9082 -2.5781 -2.5293 -2.5781 l-3.0859 0 l0 5.166 l3.0859 0 z M237.138609375 20 l-1.9043 0 l-0.9082 -11.23 l-4.2676 11.23 l-1.1816 0 l-4.2383 -11.191 l-0.92773 11.191 l-1.9141 0 l1.0645 -13.809 l2.627 0 l3.9746 10.439 l3.9941 -10.439 l2.627 0 z M250.38332578125 7.939 l-5.5273 0 l0 4.2969 l4.873 0 l0 1.7383 l-4.873 0 l0 4.2676 l5.5273 0 l0 1.7578 l-7.5098 0 l0 -13.809 l7.5098 0 l0 1.748 z M265.0436953125 6.191000000000001 l1.9336 0 l0 13.809 l-2.0996 0 l-7.2168 -10.957 l0 10.957 l-1.9238 0 l0 -13.809 l2.0801 0 l7.2266 10.908 l0 -10.908 z M280.59323671875 6.191000000000001 l0 1.748 l-3.4961 0 l0 12.061 l-1.9238 0 l0 -12.061 l-3.5059 0 l0 -1.748 l8.9258 0 z"></path></g><g id="SvgjsG2891" featureKey="sloganFeature-1" transform="matrix(1.65,0,0,1.65,121,222)" fill="url(#SvgjsLinearGradient2909)"><path d=""></path></g>
			</g>
		</svg>
	